<?xml version="1.0" encoding="UTF-8" standalone="no"?>
<!-- Created with Inkscape (http://www.inkscape.org/) -->

<svg
   xmlns:dc="http://purl.org/dc/elements/1.1/"
   xmlns:cc="http://creativecommons.org/ns#"
   xmlns:rdf="http://www.w3.org/1999/02/22-rdf-syntax-ns#"
   xmlns:svg="http://www.w3.org/2000/svg"
   xmlns="http://www.w3.org/2000/svg"
   xmlns:sodipodi="http://sodipodi.sourceforge.net/DTD/sodipodi-0.dtd"
   xmlns:inkscape="http://www.inkscape.org/namespaces/inkscape"
   width="297mm"
   height="210mm"
   viewBox="0 0 297 210"
   version="1.1"
   id="svg8"
   inkscape:version="0.92.4 (5da689c313, 2019-01-14)"
   sodipodi:docname="check_Pirate.svg">
  <defs
     id="defs2" />
  <sodipodi:namedview
     id="base"
     pagecolor="#ffffff"
     bordercolor="#666666"
     borderopacity="1.0"
     inkscape:pageopacity="0.0"
     inkscape:pageshadow="2"
     inkscape:zoom="0.35"
     inkscape:cx="472.95169"
     inkscape:cy="677.24767"
     inkscape:document-units="mm"
     inkscape:current-layer="layer1"
     showgrid="false"
     inkscape:window-width="1920"
     inkscape:window-height="1017"
     inkscape:window-x="1912"
     inkscape:window-y="-8"
     inkscape:window-maximized="1" />
  <metadata
     id="metadata5">
    <rdf:RDF>
      <cc:Work
         rdf:about="">
        <dc:format>image/svg+xml</dc:format>
        <dc:type
           rdf:resource="http://purl.org/dc/dcmitype/StillImage" />
        <dc:title></dc:title>
      </cc:Work>
    </rdf:RDF>
  </metadata>
  <g
     inkscape:label="Layer 1"
     inkscape:groupmode="layer"
     id="layer1"
     transform="translate(0,-87)">
    <g
       id="g937">
      <path
         inkscape:connector-curvature="0"
         id="rect815"
         d="m 41.95543,106.50018 v 147.78839 h 166.6875 V 106.50018 Z m 120.93835,8.02121 c 25.17879,-0.15034 32.89774,7.1236 32.89774,7.1236 0,0 -7.91295,52.67313 -1.13378,72.46999 8.31548,24.28327 0,49.70498 0,49.70498 0,0 -45.60845,-8.61372 -73.32731,-0.37931 -23.430019,6.96033 -65.012052,0 -65.012052,0 0,0 -9.695381,-48.83839 -1.889807,-65.26165 7.424652,-15.62177 0.377753,-56.91384 0.377753,-56.91384 0,0 15.875376,8.72701 69.925966,-2.27634 15.78291,-3.21301 28.30893,-4.4086 38.16149,-4.46743 z"
         style="opacity:1;fill:#ffcc00;fill-opacity:1;fill-rule:nonzero;stroke:#000000;stroke-width:0.94;stroke-linecap:square;stroke-linejoin:miter;stroke-miterlimit:4;stroke-dasharray:none;stroke-opacity:1;paint-order:markers stroke fill" />
      <path
         sodipodi:nodetypes="cscscscsc"
         inkscape:connector-curvature="0"
         id="path817-8"
         d="m 73.452798,136.97825 c 0,0 11.691,6.81422 51.496062,-1.77761 41.32687,-8.92031 52.33116,2.07388 52.33116,2.07388 0,0 -5.82754,41.1294 -0.83507,56.58752 6.12385,18.96127 -1e-5,38.81132 -1e-5,38.81132 0,0 -33.58798,-6.72598 -54.00129,-0.29625 -17.25483,5.43489 -47.877427,-2e-5 -47.877427,-2e-5 0,0 -7.140126,-38.13449 -1.391785,-50.95838 5.467816,-12.19805 0.27836,-44.44046 0.27836,-44.44046 z"
         style="fill:#ffcc00;stroke:#000000;stroke-width:0.64;stroke-linecap:butt;stroke-linejoin:miter;stroke-opacity:1;stroke-miterlimit:4;stroke-dasharray:none" />
      <path
         inkscape:connector-curvature="0"
         id="path838"
         d="M 178.65911,131.89926 69.870234,235.19806"
         style="fill:none;stroke:#000000;stroke-width:9.72292995;stroke-linecap:butt;stroke-linejoin:miter;stroke-miterlimit:4;stroke-dasharray:none;stroke-opacity:1" />
      <path
         inkscape:connector-curvature="0"
         id="path838-9"
         d="M 176.44494,232.67336 68.757734,133.89567"
         style="fill:none;stroke:#000000;stroke-width:9.4477787;stroke-linecap:butt;stroke-linejoin:miter;stroke-miterlimit:4;stroke-dasharray:none;stroke-opacity:1" />
    </g>
    <g
       id="g931">
      <path
         inkscape:connector-curvature="0"
         id="rect815-3"
         d="M -208.96043,105.50721 V 253.2956 H -42.272928 V 105.50721 Z m 120.938352,8.02121 c 25.17879,-0.15034 32.89774,7.1236 32.89774,7.1236 0,0 -7.91295,52.67313 -1.13378,72.46999 8.31548,24.28327 0,49.70498 0,49.70498 0,0 -45.608452,-8.61372 -73.327312,-0.37931 -23.43001,6.96033 -65.01205,0 -65.01205,0 0,0 -9.69538,-48.83839 -1.88981,-65.26165 7.42466,-15.62177 0.37776,-56.91384 0.37776,-56.91384 0,0 15.87537,8.72701 69.92596,-2.27634 15.78291,-3.21301 28.308932,-4.4086 38.161492,-4.46743 z"
         style="opacity:1;fill:#0000ff;fill-opacity:1;fill-rule:nonzero;stroke:#000000;stroke-width:0.94;stroke-linecap:square;stroke-linejoin:miter;stroke-miterlimit:4;stroke-dasharray:none;stroke-opacity:1;paint-order:markers stroke fill" />
      <path
         sodipodi:nodetypes="cscscscsc"
         inkscape:connector-curvature="0"
         id="path817-8-4"
         d="m -177.46306,135.98528 c 0,0 11.691,6.81422 51.49607,-1.77761 41.326862,-8.92031 52.331152,2.07388 52.331152,2.07388 0,0 -5.82754,41.1294 -0.83507,56.58752 6.12385,18.96127 -1e-5,38.81132 -1e-5,38.81132 0,0 -33.587982,-6.72598 -54.001282,-0.29625 -17.25484,5.43489 -47.87743,-2e-5 -47.87743,-2e-5 0,0 -7.14013,-38.13449 -1.39179,-50.95838 5.46782,-12.19805 0.27836,-44.44046 0.27836,-44.44046 z"
         style="fill:#0000ff;stroke:#000000;stroke-width:0.63999999;stroke-linecap:butt;stroke-linejoin:miter;stroke-miterlimit:4;stroke-dasharray:none;stroke-opacity:1" />
      <path
         inkscape:connector-curvature="0"
         id="path838-5"
         d="M -72.256748,130.90629 -181.04562,234.20509"
         style="fill:none;stroke:#000000;stroke-width:9.72292995;stroke-linecap:butt;stroke-linejoin:miter;stroke-miterlimit:4;stroke-dasharray:none;stroke-opacity:1" />
      <path
         inkscape:connector-curvature="0"
         id="path838-9-5"
         d="M -74.470918,231.68039 -182.15812,132.9027"
         style="fill:none;stroke:#000000;stroke-width:9.4477787;stroke-linecap:butt;stroke-linejoin:miter;stroke-miterlimit:4;stroke-dasharray:none;stroke-opacity:1" />
    </g>
    <g
       id="g925">
      <path
         inkscape:connector-curvature="0"
         id="rect815-3-7"
         d="M -230.33725,-81.190774 V 66.597612 H -63.649747 V -81.190774 Z m 120.93835,8.021206 c 25.178793,-0.15034 32.897743,7.1236 32.897743,7.1236 0,0 -7.91295,52.67313 -1.13378,72.4699904 8.31548,24.2832696 0,49.7049796 0,49.7049796 0,0 -45.608453,-8.61372 -73.327303,-0.37931 -23.43002,6.96033 -65.01206,0 -65.01206,0 0,0 -9.69537,-48.8383896 -1.88981,-65.2616496 7.42466,-15.6217704 0.37776,-56.9138404 0.37776,-56.9138404 0,0 15.87538,8.72701 69.92596,-2.27634 15.78292,-3.21301 28.30893,-4.4086 38.16149,-4.46743 z"
         style="opacity:1;fill:#ff00ff;fill-opacity:1;fill-rule:nonzero;stroke:#000000;stroke-width:0.94;stroke-linecap:square;stroke-linejoin:miter;stroke-miterlimit:4;stroke-dasharray:none;stroke-opacity:1;paint-order:markers stroke fill" />
      <path
         sodipodi:nodetypes="cscscscsc"
         inkscape:connector-curvature="0"
         id="path817-8-4-8"
         d="m -198.83987,-50.712708 c 0,0 11.69099,6.81422 51.49607,-1.77761 41.32685,-8.92031 52.331143,2.07388 52.331143,2.07388 0,0 -5.827543,41.1294004 -0.83507,56.5875204 6.12385,18.9612696 -10e-6,38.8113196 -10e-6,38.8113196 0,0 -33.587983,-6.72598 -54.001283,-0.29625 -17.25484,5.43489 -47.87742,-2e-5 -47.87742,-2e-5 0,0 -7.14014,-38.1344896 -1.39179,-50.9583796 5.46781,-12.1980504 0.27836,-44.4404604 0.27836,-44.4404604 z"
         style="fill:#ff00ff;stroke:#000000;stroke-width:0.63999999;stroke-linecap:butt;stroke-linejoin:miter;stroke-miterlimit:4;stroke-dasharray:none;stroke-opacity:1" />
      <path
         inkscape:connector-curvature="0"
         id="path838-5-4"
         d="M -93.633567,-55.791698 -202.42244,47.507102"
         style="fill:#ff00ff;stroke:#000000;stroke-width:9.72292995;stroke-linecap:butt;stroke-linejoin:miter;stroke-miterlimit:4;stroke-dasharray:none;stroke-opacity:1" />
      <path
         inkscape:connector-curvature="0"
         id="path838-9-5-0"
         d="M -95.847737,44.982402 -203.53493,-53.795288"
         style="fill:none;stroke:#000000;stroke-width:9.4477787;stroke-linecap:butt;stroke-linejoin:miter;stroke-miterlimit:4;stroke-dasharray:none;stroke-opacity:1" />
    </g>
    <g
       id="g919"
       transform="translate(-319.0119,-192.0119)">
      <path
         inkscape:connector-curvature="0"
         id="rect815-3-71"
         d="M 324.11459,93.837945 V 241.62633 h 166.6875 V 93.837945 Z m 120.93835,8.021205 c 25.17879,-0.15034 32.89774,7.1236 32.89774,7.1236 0,0 -7.91295,52.67313 -1.13378,72.46999 8.31548,24.28327 0,49.70498 0,49.70498 0,0 -45.60845,-8.61372 -73.32731,-0.37931 -23.43001,6.96033 -65.01205,0 -65.01205,0 0,0 -9.69538,-48.83839 -1.88981,-65.26165 7.42466,-15.62177 0.37776,-56.91384 0.37776,-56.91384 0,0 15.87537,8.72701 69.92596,-2.27634 15.78291,-3.21301 28.30893,-4.4086 38.16149,-4.46743 z"
         style="opacity:1;fill:#00ff00;fill-opacity:1;fill-rule:nonzero;stroke:#000000;stroke-width:0.94;stroke-linecap:square;stroke-linejoin:miter;stroke-miterlimit:4;stroke-dasharray:none;stroke-opacity:1;paint-order:markers stroke fill" />
      <path
         sodipodi:nodetypes="cscscscsc"
         inkscape:connector-curvature="0"
         id="path817-8-4-7"
         d="m 355.61196,124.31601 c 0,0 11.69099,6.81422 51.49607,-1.77761 41.32686,-8.92031 52.33115,2.07388 52.33115,2.07388 0,0 -5.82754,41.1294 -0.83507,56.58752 6.12385,18.96127 -10e-6,38.81132 -10e-6,38.81132 0,0 -33.58798,-6.72598 -54.00128,-0.29625 -17.25484,5.43489 -47.87743,-2e-5 -47.87743,-2e-5 0,0 -7.14013,-38.13449 -1.39179,-50.95838 5.46781,-12.19805 0.27836,-44.44046 0.27836,-44.44046 z"
         style="fill:#00ff00;stroke:#000000;stroke-width:0.63999999;stroke-linecap:butt;stroke-linejoin:miter;stroke-miterlimit:4;stroke-dasharray:none;stroke-opacity:1" />
      <path
         inkscape:connector-curvature="0"
         id="path838-5-3"
         d="M 460.81827,119.23702 352.0294,222.53582"
         style="fill:none;stroke:#000000;stroke-width:9.72292995;stroke-linecap:butt;stroke-linejoin:miter;stroke-miterlimit:4;stroke-dasharray:none;stroke-opacity:1" />
      <path
         inkscape:connector-curvature="0"
         id="path838-9-5-9"
         d="M 458.6041,220.01112 350.9169,121.23343"
         style="fill:none;stroke:#000000;stroke-width:9.4477787;stroke-linecap:butt;stroke-linejoin:miter;stroke-miterlimit:4;stroke-dasharray:none;stroke-opacity:1" />
    </g>
    <g
       id="g955"
       transform="translate(-79.375,-168.57738)">
      <path
         inkscape:connector-curvature="0"
         id="rect815-3-2"
         d="M 315.04316,11.439138 V 159.22752 h 166.6875 V 11.439138 Z m 120.93835,8.02121 c 25.17879,-0.15034 32.89774,7.123596 32.89774,7.123596 0,0 -7.91295,52.67313 -1.13378,72.46999 8.31548,24.283266 0,49.704976 0,49.704976 0,0 -45.60845,-8.61372 -73.32731,-0.37931 -23.43001,6.96033 -65.01205,0 -65.01205,0 0,0 -9.69538,-48.838386 -1.88981,-65.261646 7.42466,-15.62177 0.37776,-56.91384 0.37776,-56.91384 0,0 15.87537,8.72701 69.92596,-2.276336 15.78291,-3.21301 28.30893,-4.4086 38.16149,-4.46743 z"
         style="opacity:1;fill:#ff6600;fill-opacity:1;fill-rule:nonzero;stroke:#000000;stroke-width:0.94;stroke-linecap:square;stroke-linejoin:miter;stroke-miterlimit:4;stroke-dasharray:none;stroke-opacity:1;paint-order:markers stroke fill" />
      <path
         sodipodi:nodetypes="cscscscsc"
         inkscape:connector-curvature="0"
         id="path817-8-4-6"
         d="m 346.54053,41.917204 c 0,0 11.691,6.81422 51.49607,-1.77761 41.32686,-8.92031 52.33115,2.07388 52.33115,2.07388 0,0 -5.82754,41.1294 -0.83507,56.58752 6.12385,18.961266 -1e-5,38.811316 -1e-5,38.811316 0,0 -33.58798,-6.72598 -54.00128,-0.29625 -17.25484,5.43489 -47.87743,-2e-5 -47.87743,-2e-5 0,0 -7.14013,-38.134486 -1.39179,-50.958376 5.46782,-12.19805 0.27836,-44.44046 0.27836,-44.44046 z"
         style="fill:#ff6600;stroke:#000000;stroke-width:0.63999999;stroke-linecap:butt;stroke-linejoin:miter;stroke-miterlimit:4;stroke-dasharray:none;stroke-opacity:1" />
      <path
         inkscape:connector-curvature="0"
         id="path838-5-1"
         d="M 451.74684,36.838214 342.95797,140.13701"
         style="fill:none;stroke:#000000;stroke-width:9.72292995;stroke-linecap:butt;stroke-linejoin:miter;stroke-miterlimit:4;stroke-dasharray:none;stroke-opacity:1" />
      <path
         inkscape:connector-curvature="0"
         id="path838-9-5-6"
         d="M 449.53267,137.61231 341.84547,38.834624"
         style="fill:none;stroke:#000000;stroke-width:9.4477787;stroke-linecap:butt;stroke-linejoin:miter;stroke-miterlimit:4;stroke-dasharray:none;stroke-opacity:1" />
    </g>
    <g
       id="g973"
       transform="translate(97.517857,-198.05952)">
      <path
         inkscape:connector-curvature="0"
         id="rect815-3-3"
         d="M 340.74553,45.456996 V 193.24538 h 166.6875 V 45.456996 Z m 120.93835,8.02121 c 25.17879,-0.15034 32.89774,7.1236 32.89774,7.1236 0,0 -7.91295,52.673124 -1.13378,72.469984 8.31548,24.28327 0,49.70498 0,49.70498 0,0 -45.60845,-8.61372 -73.32731,-0.37931 -23.43001,6.96033 -65.01205,0 -65.01205,0 0,0 -9.69538,-48.83839 -1.88981,-65.26165 7.42466,-15.62177 0.37776,-56.913834 0.37776,-56.913834 0,0 15.87537,8.72701 69.92596,-2.27634 15.78291,-3.21301 28.30893,-4.4086 38.16149,-4.46743 z"
         style="opacity:1;fill:#ffff00;fill-opacity:1;fill-rule:nonzero;stroke:#000000;stroke-width:0.94;stroke-linecap:square;stroke-linejoin:miter;stroke-miterlimit:4;stroke-dasharray:none;stroke-opacity:1;paint-order:markers stroke fill" />
      <path
         sodipodi:nodetypes="cscscscsc"
         inkscape:connector-curvature="0"
         id="path817-8-4-67"
         d="m 372.2429,75.935064 c 0,0 11.691,6.81422 51.49608,-1.777608 41.32685,-8.92031 52.33114,2.073878 52.33114,2.073878 0,0 -5.82754,41.129396 -0.83507,56.587516 6.12385,18.96127 -10e-6,38.81132 -10e-6,38.81132 0,0 -33.58798,-6.72598 -54.00128,-0.29625 -17.25484,5.43489 -47.87743,-2e-5 -47.87743,-2e-5 0,0 -7.14013,-38.13449 -1.39179,-50.95838 5.46782,-12.19805 0.27836,-44.440456 0.27836,-44.440456 z"
         style="fill:#ffff00;stroke:#000000;stroke-width:0.63999999;stroke-linecap:butt;stroke-linejoin:miter;stroke-miterlimit:4;stroke-dasharray:none;stroke-opacity:1" />
      <path
         inkscape:connector-curvature="0"
         id="path838-5-30"
         d="M 477.44921,70.856076 368.66034,174.15487"
         style="fill:none;stroke:#000000;stroke-width:9.72292995;stroke-linecap:butt;stroke-linejoin:miter;stroke-miterlimit:4;stroke-dasharray:none;stroke-opacity:1" />
      <path
         inkscape:connector-curvature="0"
         id="path838-9-5-4"
         d="M 475.23504,171.63017 367.54784,72.852486"
         style="fill:none;stroke:#000000;stroke-width:9.4477787;stroke-linecap:butt;stroke-linejoin:miter;stroke-miterlimit:4;stroke-dasharray:none;stroke-opacity:1" />
    </g>
    <g
       id="g991"
       transform="translate(-740.07738,9.0714286)">
      <path
         inkscape:connector-curvature="0"
         id="rect815-3-9"
         d="M 338.47767,85.522467 V 233.31086 h 166.6875 V 85.522467 Z m 120.93835,8.02121 c 25.17879,-0.15034 32.89774,7.123603 32.89774,7.123603 0,0 -7.91295,52.67313 -1.13378,72.46999 8.31548,24.28327 0,49.70498 0,49.70498 0,0 -45.60845,-8.61372 -73.32731,-0.37931 -23.43001,6.96033 -65.01205,0 -65.01205,0 0,0 -9.69538,-48.83839 -1.88981,-65.26165 7.42466,-15.62177 0.37776,-56.91384 0.37776,-56.91384 0,0 15.87537,8.72701 69.92596,-2.276343 15.78291,-3.21301 28.30893,-4.4086 38.16149,-4.46743 z"
         style="opacity:1;fill:#ff0000;fill-opacity:1;fill-rule:nonzero;stroke:#000000;stroke-width:0.94;stroke-linecap:square;stroke-linejoin:miter;stroke-miterlimit:4;stroke-dasharray:none;stroke-opacity:1;paint-order:markers stroke fill" />
      <path
         sodipodi:nodetypes="cscscscsc"
         inkscape:connector-curvature="0"
         id="path817-8-4-3"
         d="m 369.97504,116.00054 c 0,0 11.691,6.81422 51.49608,-1.77761 41.32685,-8.92031 52.33114,2.07388 52.33114,2.07388 0,0 -5.82754,41.1294 -0.83507,56.58752 6.12385,18.96127 -1e-5,38.81132 -1e-5,38.81132 0,0 -33.58798,-6.72598 -54.00128,-0.29625 -17.25484,5.43489 -47.87743,-2e-5 -47.87743,-2e-5 0,0 -7.14013,-38.13449 -1.39179,-50.95838 5.46782,-12.19805 0.27836,-44.44046 0.27836,-44.44046 z"
         style="fill:#ff0000;stroke:#000000;stroke-width:0.63999999;stroke-linecap:butt;stroke-linejoin:miter;stroke-miterlimit:4;stroke-dasharray:none;stroke-opacity:1" />
      <path
         inkscape:connector-curvature="0"
         id="path838-5-7"
         d="M 475.18135,110.92155 366.39248,214.22035"
         style="fill:none;stroke:#000000;stroke-width:9.72292995;stroke-linecap:butt;stroke-linejoin:miter;stroke-miterlimit:4;stroke-dasharray:none;stroke-opacity:1" />
      <path
         inkscape:connector-curvature="0"
         id="path838-9-5-3"
         d="M 472.96718,211.69565 365.27998,112.91796"
         style="fill:none;stroke:#000000;stroke-width:9.4477787;stroke-linecap:butt;stroke-linejoin:miter;stroke-miterlimit:4;stroke-dasharray:none;stroke-opacity:1" />
    </g>
    <path
       style="opacity:1;fill:#008080;fill-opacity:1;fill-rule:nonzero;stroke:#000000;stroke-width:0.94;stroke-linecap:square;stroke-linejoin:miter;stroke-miterlimit:4;stroke-dasharray:none;stroke-opacity:1;paint-order:markers stroke fill"
       d="M 336.20982,41.677232 V 189.46562 h 166.6875 V 41.677232 Z m 120.93835,8.02121 c 25.17879,-0.15034 32.89774,7.1236 32.89774,7.1236 0,0 -7.91295,52.673128 -1.13378,72.469988 8.31548,24.28327 0,49.70498 0,49.70498 0,0 -45.60845,-8.61372 -73.32731,-0.37931 -23.43001,6.96033 -65.01205,0 -65.01205,0 0,0 -9.69538,-48.83839 -1.88981,-65.26165 7.42466,-15.621768 0.37776,-56.913838 0.37776,-56.913838 0,0 15.87537,8.72701 69.92596,-2.27634 15.78291,-3.21301 28.30893,-4.4086 38.16149,-4.46743 z"
       id="rect815-3-6"
       inkscape:connector-curvature="0" />
    <path
       style="fill:#008080;stroke:#000000;stroke-width:0.63999999;stroke-linecap:butt;stroke-linejoin:miter;stroke-miterlimit:4;stroke-dasharray:none;stroke-opacity:1"
       d="m 367.70719,72.155302 c 0,0 11.691,6.81422 51.49607,-1.77761 41.32686,-8.92031 52.33115,2.07388 52.33115,2.07388 0,0 -5.82754,41.129398 -0.83507,56.587518 6.12385,18.96127 -1e-5,38.81132 -1e-5,38.81132 0,0 -33.58798,-6.72598 -54.00128,-0.29625 -17.25484,5.43489 -47.87743,-2e-5 -47.87743,-2e-5 0,0 -7.14013,-38.13449 -1.39179,-50.95838 5.46782,-12.19805 0.27836,-44.440458 0.27836,-44.440458 z"
       id="path817-8-4-1"
       inkscape:connector-curvature="0"
       sodipodi:nodetypes="cscscscsc" />
    <path
       style="fill:none;stroke:#000000;stroke-width:9.72292995;stroke-linecap:butt;stroke-linejoin:miter;stroke-miterlimit:4;stroke-dasharray:none;stroke-opacity:1"
       d="M 472.9135,67.076312 364.12463,170.37511"
       id="path838-5-8"
       inkscape:connector-curvature="0" />
    <path
       style="fill:none;stroke:#000000;stroke-width:9.4477787;stroke-linecap:butt;stroke-linejoin:miter;stroke-miterlimit:4;stroke-dasharray:none;stroke-opacity:1"
       d="M 470.69933,167.85041 363.01213,69.072722"
       id="path838-9-5-69"
       inkscape:connector-curvature="0" />
  </g>
</svg>
